<?xml version="1.0" standalone="no"?>
<!DOCTYPE svg PUBLIC "-//W3C//DTD SVG 20010904//EN"
 "http://www.w3.org/TR/2001/REC-SVG-20010904/DTD/svg10.dtd">
<svg version="1.0" xmlns="http://www.w3.org/2000/svg"
 width="449.000000pt" height="449.000000pt" viewBox="0 0 449.000000 449.000000"
 preserveAspectRatio="xMidYMid meet">
<metadata>
Created by potrace 1.14, written by Peter Selinger 2001-2017
</metadata>
<g transform="translate(0.000000,449.000000) scale(0.100000,-0.100000)"
fill="#000000" stroke="none">
<path d="M1070 3210 l0 -80 -75 0 -75 0 0 -305 0 -305 155 0 155 0 0 -380 0
-380 -80 0 -80 0 0 -225 0 -225 80 0 80 0 0 -80 0 -80 150 0 150 0 0 80 0 80
75 0 75 0 0 -80 0 -80 155 0 155 0 0 80 0 80 75 0 75 0 0 75 0 75 305 0 305 0
0 -75 0 -75 75 0 75 0 0 -80 0 -80 150 0 150 0 0 80 0 80 80 0 80 0 0 150 0
150 75 0 75 0 0 75 0 75 75 0 75 0 0 75 0 75 -75 0 -75 0 0 305 0 305 -75 0
-75 0 0 80 0 80 -80 0 -80 0 0 75 0 75 -75 0 -75 0 0 75 0 75 -75 0 -75 0 0
75 0 75 -455 0 -455 0 0 -75 0 -75 -155 0 -155 0 0 75 0 75 -75 0 -75 0 0 80
0 80 -230 0 -230 0 0 -80z m460 -155 l0 -75 75 0 75 0 0 -150 0 -150 75 0 75
0 0 -80 0 -80 80 0 80 0 0 -150 0 -150 75 0 75 0 0 -75 0 -75 75 0 75 0 0 75
0 75 75 0 75 0 0 -75 0 -75 155 0 155 0 0 75 0 75 75 0 75 0 0 -75 0 -75 75 0
75 0 0 75 0 75 75 0 75 0 0 -155 0 -155 155 0 155 0 0 -75 0 -75 -230 0 -230
0 0 -75 0 -75 75 0 75 0 0 -150 0 -150 -150 0 -150 0 0 150 0 150 -455 0 -455
0 0 -150 0 -150 -80 0 -80 0 0 150 0 150 -75 0 -75 0 0 75 0 75 -75 0 -75 0 0
-225 0 -225 -150 0 -150 0 0 225 0 225 150 0 150 0 0 155 0 155 -75 0 -75 0 0
305 0 305 -155 0 -155 0 0 150 0 150 80 0 80 0 0 75 0 75 150 0 150 0 0 -75z
m610 -300 l0 -75 -75 0 -75 0 0 75 0 75 75 0 75 0 0 -75z m300 0 l0 -75 -75 0
-75 0 0 75 0 75 75 0 75 0 0 -75z m460 0 l0 -75 -75 0 -75 0 0 75 0 75 75 0
75 0 0 -75z m-610 -310 l0 -75 -75 0 -75 0 0 75 0 75 75 0 75 0 0 -75z m460 0
l0 -75 -75 0 -75 0 0 75 0 75 75 0 75 0 0 -75z m300 0 l0 -75 -75 0 -75 0 0
75 0 75 75 0 75 0 0 -75z"/>
<path d="M1380 2905 l0 -75 75 0 75 0 0 75 0 75 -75 0 -75 0 0 -75z"/>
</g>
</svg>
